# xmcd
#
# Track frame offsets:
#	150
#	22908
#	50505
#	80240
#	108055
#	128590
#	152438
#	179463
#	204933
#	228503
#
# Disc length: 3359 seconds
#
# Revision: 2921193549
# Processed by: cddbd v1.5.2PL0 Copyright (c) Steve Scherf et al.
# Submitted via: EZCDAudioConverter 8.0.2.1
#
DISCID=720d1d0a
DTITLE=Thái Thanh - Đêm Nhớ Trăng Sài Gòn
DYEAR=1990
DGENRE=
TTITLE0=Bài hương ca vô tân
TTITLE1=Nước non ngàn dặm ra đi
TTITLE2=Áo anh sứt chỉ đường tà
TTITLE3=Nghin thu
TTITLE4=Tình hoài hương
TTITLE5=Đường xưa lối cũ
TTITLE6=Đêm Nhớ Trăng Sài Gòn
TTITLE7=Lòng mẹ
TTITLE8=Mẹ Việt Nam ơi
TTITLE9=Hẹn em năm 2000
EXTD=
EXTT0=
EXTT1=
EXTT2=
EXTT3=
EXTT4=
EXTT5=
EXTT6=
EXTT7=
EXTT8=
EXTT9=
PLAYORDER=
